<svg xmlns="http://www.w3.org/2000/svg" xmlns:xlink="http://www.w3.org/1999/xlink" width="500" zoomAndPan="magnify" viewBox="0 0 375 374.999991" height="500" preserveAspectRatio="xMidYMid meet" version="1.0"><defs><g/><clipPath id="ccda5ea42c"><path d="M 48.695312 181 L 95.945312 181 L 95.945312 226.589844 L 48.695312 226.589844 Z M 48.695312 181 " clip-rule="nonzero"/></clipPath><clipPath id="d6d78a6993"><path d="M 48.695312 169.589844 L 95.945312 169.589844 L 95.945312 181 L 48.695312 181 Z M 48.695312 169.589844 " clip-rule="nonzero"/></clipPath></defs><g clip-path="url(#ccda5ea42c)"><path fill="#ffffff" d="M 95.910156 181.496094 L 48.714844 181.496094 L 48.714844 220.03125 C 48.714844 223.65625 51.679688 226.597656 55.328125 226.597656 L 89.296875 226.597656 C 92.945312 226.597656 95.910156 223.65625 95.910156 220.03125 Z M 72.3125 187.882812 C 64.300781 187.882812 57.792969 194.347656 57.792969 202.308594 C 57.792969 210.269531 64.300781 216.734375 72.3125 216.734375 C 80.324219 216.734375 86.832031 210.269531 86.832031 202.308594 C 86.832031 194.347656 80.324219 187.882812 72.3125 187.882812 Z M 72.3125 187.882812 " fill-opacity="1" fill-rule="evenodd"/></g><path fill="#ffffff" d="M 72.3125 189.917969 C 79.195312 189.917969 84.785156 195.46875 84.785156 202.308594 C 84.785156 209.148438 79.195312 214.699219 72.3125 214.699219 C 65.429688 214.699219 59.839844 209.148438 59.839844 202.308594 C 59.839844 195.46875 65.429688 189.917969 72.3125 189.917969 Z M 83.222656 202.308594 C 83.222656 208.292969 78.332031 213.148438 72.3125 213.148438 C 66.292969 213.148438 61.402344 208.292969 61.402344 202.308594 C 61.402344 202.308594 64.449219 200.976562 65.757812 200.792969 C 66.914062 200.632812 68.160156 200.757812 69.238281 201.207031 C 70.816406 201.875 73.222656 204.472656 75.234375 204.78125 C 78.464844 205.28125 80.496094 200.796875 83.222656 202.308594 Z M 83.222656 202.308594 " fill-opacity="1" fill-rule="evenodd"/><g clip-path="url(#d6d78a6993)"><path fill="#ffffff" d="M 48.714844 180.089844 L 95.910156 180.089844 L 95.910156 176.160156 C 95.910156 172.535156 92.945312 169.59375 89.296875 169.59375 L 55.328125 169.59375 C 51.679688 169.59375 48.714844 172.535156 48.714844 176.160156 Z M 81.785156 173.261719 C 82.671875 173.261719 83.390625 173.976562 83.390625 174.859375 C 83.390625 175.738281 82.671875 176.453125 81.785156 176.453125 C 80.898438 176.453125 80.179688 175.738281 80.179688 174.859375 C 80.179688 173.976562 80.898438 173.261719 81.785156 173.261719 Z M 87.855469 173.261719 C 88.742188 173.261719 89.460938 173.976562 89.460938 174.859375 C 89.460938 175.738281 88.742188 176.453125 87.855469 176.453125 C 86.96875 176.453125 86.25 175.738281 86.25 174.859375 C 86.25 173.976562 86.96875 173.261719 87.855469 173.261719 Z M 67.703125 174.214844 L 53.402344 174.214844 L 53.402344 175.46875 L 67.703125 175.46875 Z M 67.703125 174.214844 " fill-opacity="1" fill-rule="evenodd"/></g><g fill="#ffffff" fill-opacity="1"><g transform="translate(99.670646, 207.165176)"><g><path d="M 2.382812 0 L 6.898438 0 L 6.898438 -5.535156 L 10.164062 -5.535156 C 14.960938 -5.535156 18.054688 -8.347656 18.054688 -12.6875 C 18.054688 -17.0625 14.960938 -19.871094 10.164062 -19.871094 L 2.382812 -19.871094 Z M 6.871094 -9.425781 L 6.871094 -15.925781 L 9.792969 -15.925781 C 12.148438 -15.925781 13.457031 -14.734375 13.457031 -12.660156 C 13.457031 -10.589844 12.148438 -9.425781 9.792969 -9.425781 Z M 6.871094 -9.425781 "/></g></g></g><g fill="#ffffff" fill-opacity="1"><g transform="translate(118.545191, 207.165176)"><g><path d="M 2.382812 0 L 6.898438 0 L 6.898438 -6.1875 L 9.878906 -6.1875 L 13.425781 0 L 18.652344 0 L 14.535156 -6.898438 C 16.917969 -7.949219 18.308594 -10.105469 18.308594 -13.03125 C 18.308594 -17.257812 15.414062 -19.871094 10.871094 -19.871094 L 2.382812 -19.871094 Z M 6.839844 -9.992188 L 6.839844 -16.011719 L 10.277344 -16.011719 C 12.492188 -16.011719 13.738281 -14.933594 13.738281 -13 C 13.738281 -11.070312 12.492188 -9.992188 10.277344 -9.992188 Z M 6.839844 -9.992188 "/></g></g></g><g fill="#ffffff" fill-opacity="1"><g transform="translate(138.526666, 207.165176)"><g><path d="M 2.382812 0 L 15.753906 0 L 15.753906 -3.832031 L 6.871094 -3.832031 L 6.871094 -8.175781 L 14.675781 -8.175781 L 14.675781 -11.949219 L 6.871094 -11.949219 L 6.871094 -16.066406 L 15.441406 -16.066406 L 15.441406 -19.871094 L 2.382812 -19.871094 Z M 2.382812 0 "/></g></g></g><g fill="#ffffff" fill-opacity="1"><g transform="translate(155.726631, 207.165176)"><g><path d="M 9.3125 0.398438 C 14.023438 0.398438 16.917969 -1.84375 16.917969 -5.59375 C 16.917969 -8.742188 14.847656 -10.617188 9.90625 -11.78125 C 6.871094 -12.492188 5.820312 -13.257812 5.820312 -14.476562 C 5.820312 -15.785156 6.984375 -16.578125 8.886719 -16.578125 C 10.957031 -16.578125 12.207031 -15.5 12.207031 -13.710938 L 16.550781 -13.710938 C 16.550781 -17.714844 13.539062 -20.269531 8.828125 -20.269531 C 4.257812 -20.269531 1.417969 -18.027344 1.417969 -14.390625 C 1.417969 -11.15625 3.605469 -9.226562 8.261719 -8.230469 C 11.070312 -7.636719 12.347656 -6.8125 12.347656 -5.421875 C 12.347656 -4.085938 11.15625 -3.320312 9.28125 -3.320312 C 7.097656 -3.320312 5.675781 -4.429688 5.675781 -6.332031 L 1.25 -6.332031 C 1.25 -2.214844 4.316406 0.398438 9.3125 0.398438 Z M 9.3125 0.398438 "/></g></g></g><g fill="#ffffff" fill-opacity="1"><g transform="translate(173.91999, 207.165176)"><g><path d="M 7.152344 0 L 11.667969 0 L 11.667969 -15.640625 L 17.96875 -15.640625 L 17.96875 -19.871094 L 0.851562 -19.871094 L 0.851562 -15.640625 L 7.152344 -15.640625 Z M 7.152344 0 "/></g></g></g><g fill="#ffffff" fill-opacity="1"><g transform="translate(192.737772, 207.165176)"><g><path d="M 11.808594 0.398438 C 18.027344 0.398438 22.425781 -3.859375 22.425781 -9.9375 C 22.425781 -16.011719 18.027344 -20.269531 11.808594 -20.269531 C 5.59375 -20.269531 1.21875 -16.011719 1.21875 -9.9375 C 1.21875 -3.859375 5.59375 0.398438 11.808594 0.398438 Z M 5.820312 -9.9375 C 5.820312 -13.511719 8.289062 -15.980469 11.808594 -15.980469 C 15.359375 -15.980469 17.800781 -13.511719 17.800781 -9.9375 C 17.800781 -6.359375 15.359375 -3.890625 11.808594 -3.890625 C 8.289062 -3.890625 5.820312 -6.359375 5.820312 -9.9375 Z M 5.820312 -9.9375 "/></g></g></g><g fill="#ffffff" fill-opacity="1"><g transform="translate(216.37767, 207.165176)"><g><path d="M 11.695312 0.367188 C 16.523438 0.367188 20.4375 -2.554688 21.632812 -6.984375 L 18.992188 -6.984375 C 17.96875 -4.003906 15.160156 -2.128906 11.78125 -2.128906 C 7.351562 -2.128906 4.203125 -5.335938 4.203125 -9.9375 C 4.203125 -14.535156 7.351562 -17.742188 11.78125 -17.742188 C 15.074219 -17.742188 17.769531 -15.980469 18.792969 -13.113281 L 21.460938 -13.113281 C 20.15625 -17.488281 16.378906 -20.242188 11.695312 -20.242188 C 5.847656 -20.242188 1.644531 -15.925781 1.644531 -9.9375 C 1.644531 -3.945312 5.847656 0.367188 11.695312 0.367188 Z M 11.695312 0.367188 "/></g></g></g><g fill="#ffffff" fill-opacity="1"><g transform="translate(239.538016, 207.165176)"><g><path d="M 2.894531 0 L 15.046875 0 L 15.046875 -2.382812 L 5.394531 -2.382812 L 5.394531 -19.871094 L 2.894531 -19.871094 Z M 2.894531 0 "/></g></g></g><g fill="#ffffff" fill-opacity="1"><g transform="translate(255.460752, 207.165176)"><g><path d="M 2.894531 0 L 15.273438 0 L 15.273438 -2.328125 L 5.394531 -2.328125 L 5.394531 -8.96875 L 14.25 -8.96875 L 14.25 -11.269531 L 5.394531 -11.269531 L 5.394531 -17.542969 L 14.960938 -17.542969 L 14.960938 -19.871094 L 2.894531 -19.871094 Z M 2.894531 0 "/></g></g></g><g fill="#ffffff" fill-opacity="1"><g transform="translate(272.575561, 207.165176)"><g><path d="M 0.484375 0 L 3.152344 0 L 4.96875 -4.511719 L 14.648438 -4.511719 L 16.523438 0 L 19.160156 0 L 10.984375 -19.871094 L 8.65625 -19.871094 Z M 5.933594 -6.839844 L 9.820312 -16.378906 L 13.710938 -6.839844 Z M 5.933594 -6.839844 "/></g></g></g><g fill="#ffffff" fill-opacity="1"><g transform="translate(292.216448, 207.165176)"><g><path d="M 2.894531 0 L 5.367188 0 L 5.367188 -15.554688 L 16.351562 0 L 18.679688 0 L 18.679688 -19.871094 L 16.238281 -19.871094 L 16.238281 -4.316406 L 5.25 -19.871094 L 2.894531 -19.871094 Z M 2.894531 0 "/></g></g></g></svg>